<?xml version="1.0" encoding="UTF-8"?>
<svg width="180px" height="77px" viewBox="0 0 180 77" version="1.1" xmlns="http://www.w3.org/2000/svg" xmlns:xlink="http://www.w3.org/1999/xlink">
    <!-- Generator: Sketch 43.2 (39069) - http://www.bohemiancoding.com/sketch -->
    <title>Page 1</title>
    <desc>Created with Sketch.</desc>
    <defs></defs>
    <g id="Logo" stroke="none" stroke-width="1" fill="none" fill-rule="evenodd">
        <g transform="translate(-417.000000, -236.000000)" id="Page-1">
            <g transform="translate(417.000000, 236.000000)">
                <path d="M15.9068919,27.2215866 C15.9068919,29.3663272 15.1175676,31.0634381 13.5377027,32.3165587 C11.9578378,33.5696792 9.85864865,34.196846 7.24013514,34.196846 C4.09256757,34.196846 1.67959459,33.8523288 0,33.1608683 L0,31.3679234 C1.85594595,32.1527917 4.22148649,32.5458324 7.09905405,32.5458324 C9.21283784,32.5458324 10.8887838,32.0618101 12.1281081,31.0949785 C13.3674324,30.1293599 13.9864865,28.8616824 13.9864865,27.2919457 C13.9864865,26.3202618 13.7809459,25.5147709 13.3698649,24.8754733 C12.9587838,24.2373887 12.2898649,23.6551061 11.3618919,23.1274126 C10.4339189,22.5997191 9.07175676,22.0332067 7.27540541,21.4242362 C4.64472973,20.5216983 2.8277027,19.5463751 1.82310811,18.4982666 C0.81972973,17.4489449 0.317432432,16.05268 0.317432432,14.3070455 C0.317432432,12.3867263 1.07148649,10.8194158 2.58081081,9.60632721 C4.08891892,8.39445172 6.03,7.78790742 8.40283784,7.78790742 C10.8218919,7.78790742 13.0937838,8.24524182 15.2197297,9.15869753 L14.5678378,10.7053855 C12.4309459,9.81497845 10.3864865,9.36977494 8.43810811,9.36977494 C6.53472973,9.36977494 5.02054054,9.80891301 3.89310811,10.6884022 C2.76567568,11.5666784 2.20135135,12.7615706 2.20135135,14.2718659 C2.20135135,15.2205012 2.37527027,16.0005172 2.72189189,16.6094876 C3.0672973,17.2184581 3.63527027,17.7655611 4.42216216,18.2520096 C5.20783784,18.7384581 6.55905405,19.3207406 8.47337838,20.0000702 C10.4813514,20.6915307 11.9894595,21.3623687 13.0001351,22.0125842 C14.0095946,22.6615866 14.7466216,23.4003575 15.2112162,24.2252578 C15.6745946,25.0513711 15.9068919,26.049743 15.9068919,27.2215866 Z" id="Fill-1" fill="#373737"></path>
                <path d="M20.5491892,33.8455355 L22.2932432,33.8455355 L22.2932432,14.7466688 L20.5491892,14.7466688 L20.5491892,33.8455355 Z M20.3022973,9.44061931 C20.3022973,8.31608619 20.672027,7.75442618 21.4114865,7.75442618 C21.7763514,7.75442618 22.0609459,7.89999681 22.2664865,8.19235116 C22.4708108,8.4859186 22.5741892,8.90200798 22.5741892,9.44061931 C22.5741892,9.96709976 22.4708108,10.3831891 22.2664865,10.6888875 C22.0609459,10.9933727 21.7763514,11.1450088 21.4114865,11.1450088 C20.672027,11.1450088 20.3022973,10.5772833 20.3022973,9.44061931 L20.3022973,9.44061931 Z" id="Fill-3" fill="#373737"></path>
                <path d="M52.2662838,33.8461421 L52.2662838,21.3185762 C52.2662838,19.4564852 51.9026351,18.097826 51.1741216,17.2413855 C50.4456081,16.386158 49.3303378,15.9591508 47.8270946,15.9591508 C45.8653378,15.9591508 44.4156081,16.4977622 43.475473,17.5761979 C42.5365541,18.6534206 42.0670946,20.3456792 42.0670946,22.6529737 L42.0670946,33.8461421 L40.2877703,33.8461421 L40.2877703,20.7908827 C40.2877703,17.5701325 38.8076351,15.9591508 35.8485811,15.9591508 C33.8406081,15.9591508 32.3775,16.5414334 31.4629054,17.7072115 C30.5458784,18.8729896 30.0885811,20.7375068 30.0885811,23.3044022 L30.0885811,33.8461421 L28.344527,33.8461421 L28.344527,14.7472753 L29.7893919,14.7472753 L30.1579054,17.3651205 L30.2637162,17.3651205 C30.7927703,16.4164852 31.5431757,15.6801405 32.5185811,15.1597255 C33.4939865,14.6380974 34.5679054,14.3772833 35.7427703,14.3772833 C38.7614189,14.3772833 40.6988514,15.5078819 41.5550676,17.769079 L41.6256081,17.769079 C42.2483108,16.6797255 43.0850676,15.8414812 44.1358784,15.2567725 C45.1879054,14.6696377 46.3822297,14.3772833 47.7212838,14.3772833 C49.8107432,14.3772833 51.3796622,14.934091 52.4243919,16.0464932 C53.4703378,17.1601085 53.9920946,18.9287917 53.9920946,21.3525427 L53.9920946,33.8461421 L52.2662838,33.8461421 Z" id="Fill-5" fill="#373737"></path>
                <path d="M67.9886757,32.6507646 C69.9492162,32.6507646 71.4670541,31.9241245 72.5421892,30.4720575 C73.6161081,29.0199904 74.1536757,26.986854 74.1536757,24.3750742 C74.1536757,18.7645395 72.1213784,15.9586656 68.0592162,15.9586656 C65.8274595,15.9586656 64.1892162,16.5712753 63.1444865,17.7952817 C62.0985405,19.0192881 61.5767838,21.0136057 61.5767838,23.7782346 L61.5767838,24.3398947 C61.5767838,27.3265188 62.0790811,29.4591285 63.0824595,30.7352977 C64.0870541,32.01268 65.7216486,32.6507646 67.9886757,32.6507646 M68.0239459,34.1962394 C65.0758378,34.1962394 62.9267838,33.0959681 61.5767838,30.8942123 L61.4527297,30.8942123 L61.5062432,32.3705411 C61.5524595,33.2354733 61.5767838,34.1853216 61.5767838,35.2152338 L61.5767838,42.4901261 L59.8327297,42.4901261 L59.8327297,14.7467901 L61.3128649,14.7467901 L61.6473243,17.470174 L61.7531351,17.470174 C63.0678649,15.4079234 65.1707027,14.3780112 68.0592162,14.3780112 C70.6424595,14.3780112 72.6127297,15.224747 73.9688108,16.9157925 C75.3261081,18.6092642 76.0035405,21.071834 76.0035405,24.3047151 C76.0035405,27.4441883 75.2896216,29.8776441 73.8642162,31.6062953 C72.4363784,33.3325204 70.4904324,34.1962394 68.0239459,34.1962394" id="Fill-6" fill="#373737"></path>
                <polygon id="Fill-7" fill="#373737" points="80.9452703 33.8455355 82.6893243 33.8455355 82.6893243 6.50615802 80.9452703 6.50615802"></polygon>
                <path d="M95.9628649,15.923486 C94.1190811,15.923486 92.6401622,16.5300303 91.5236757,17.7419058 C90.4084054,18.9549944 89.7552973,20.7030551 89.568,22.9873009 L101.406649,22.9873009 C101.406649,20.7734142 100.925027,19.0423368 99.9617838,17.7952817 C98.9985405,16.5482267 97.6655676,15.923486 95.9628649,15.923486 M96.4736757,34.1962394 C93.6897568,34.1962394 91.5212432,33.341012 89.9644865,31.6317702 C88.4089459,29.9213152 87.6305676,27.5254653 87.6305676,24.4454334 C87.6305676,21.400581 88.3821892,18.9610599 89.8854324,17.1268699 C91.3886757,15.2938931 93.4148919,14.3780112 95.9628649,14.3780112 C98.2177297,14.3780112 99.9970541,15.1628795 101.300838,16.7326161 C102.603405,18.3023528 103.256514,20.4337494 103.256514,23.1268061 L103.256514,24.5339888 L89.4621892,24.5339888 C89.4865135,27.1578994 90.0994865,29.1594956 91.3035405,30.5424166 C92.5075946,31.9241245 94.230973,32.615585 96.4736757,32.615585 C97.5658378,32.615585 98.5254324,32.5391604 99.3536757,32.3875243 C100.181919,32.2346752 101.230297,31.9071413 102.498811,31.4037095 L102.498811,32.9843639 C101.417595,33.4526161 100.420297,33.7728715 99.5032703,33.9427039 C98.5874595,34.1125363 97.578,34.1962394 96.4736757,34.1962394" id="Fill-8" fill="#373737"></path>
                <path d="M115.719203,14.3775259 C116.530419,14.3775259 117.398797,14.4588029 118.32677,14.6237829 L117.992311,16.2929928 C117.193257,16.0940463 116.365014,15.994573 115.507581,15.994573 C113.875419,15.994573 112.536365,16.6848204 111.491635,18.0677414 C110.446905,19.4506624 109.923932,21.1950838 109.923932,23.3034318 L109.923932,33.8463847 L108.179878,33.8463847 L108.179878,14.747518 L109.660014,14.747518 L109.836365,18.1914765 L109.959203,18.1914765 C110.746095,16.7842937 111.585284,15.7980527 112.477986,15.2303272 C113.370689,14.6613887 114.450689,14.3775259 115.719203,14.3775259" id="Fill-9" fill="#373737"></path>
                <polygon id="Fill-10" fill="#E4376C" points="134.176865 18.8921564 143.895649 0.772252195 146.392541 0.772252195 135.334703 21.0890599 135.334703 33.8847183 132.950919 33.8847183 132.950919 21.2698101 121.846865 0.772252195 124.503081 0.772252195"></polygon>
                <path d="M162.858284,25.9989146 C158.579635,25.9989146 154.982068,23.0923543 153.942203,19.1498164 C155.841932,22.0515243 159.1245,23.9706305 162.858284,23.9706305 C166.592068,23.9706305 169.874635,22.0515243 171.774365,19.1498164 C170.733284,23.0923543 167.136932,25.9989146 162.858284,25.9989146 M162.858284,0 C153.476392,0 145.871392,7.58544294 145.871392,16.9419952 C145.871392,26.2997606 153.476392,33.8852035 162.858284,33.8852035 C172.238959,33.8852035 179.843959,26.2997606 179.843959,16.9419952 C179.843959,7.58544294 172.238959,0 162.858284,0" id="Fill-11" fill="#E4376C"></path>
                <path d="M83.0755946,75.9144773 L83.1169459,60.9752913 L79.2895135,60.9643735 L79.2591081,71.8457781 L76.5372162,75.5359936 L74.7919459,74.2100878 L77.0918108,71.1482522 L77.1477568,50.7380367 L84.5314054,50.7586592 L86.0723514,49.3502634 L87.6047838,50.9163607 L85.4301892,52.9252354 L79.3114054,52.9082522 L79.2955946,58.8002235 L87.9745135,58.8232721 L87.9684324,60.9874222 L85.2866757,60.9801437 L85.2453243,75.9205427 L83.0755946,75.9144773 Z M73.0491081,72.2206225 L70.7954595,69.8393296 L72.3668108,68.3702793 L74.6204595,70.7503591 L73.0491081,72.2206225 Z M70.0487027,56.7319074 L72.3157297,54.3615323 L73.8785676,55.8099601 L71.6115405,58.2070231 L70.0487027,56.7319074 Z M64.6499189,58.1888268 L62.3962703,55.7772067 L63.9968108,54.3396967 L66.2212703,56.7209896 L64.6499189,58.1888268 Z M61.5716757,70.7151796 L63.8387027,68.3484437 L65.4015405,69.8235595 L63.1345135,72.1939346 L61.5716757,70.7151796 Z M74.9682973,53.8884278 L61.3162703,53.8520351 L61.3223514,51.686672 L67.0482973,51.7024421 L67.0555946,48.9669274 L69.2253243,48.9729928 L69.218027,51.7085076 L74.9743784,51.7242777 L74.9682973,53.8884278 Z M75.3720811,60.8030327 L69.1924865,60.7860495 L69.1827568,64.4241022 L75.3611351,64.4410854 L75.3550541,66.6052354 L69.1766757,66.5894653 L69.1535676,75.335834 L64.6328919,75.3249162 L64.638973,73.1595531 L66.9887027,73.1656185 L67.0069459,66.5833998 L60.8893784,66.5664166 L60.8954595,64.4022666 L67.013027,64.4180367 L67.0227568,60.779984 L60.9051892,60.7642139 L60.9112703,58.6000638 L75.3769459,58.6388827 L75.3720811,60.8030327 Z" id="Fill-12" fill="#373737"></path>
                <path d="M115.767851,56.4339729 L113.319608,58.8916903 L111.787176,57.3850343 L114.235419,54.8969896 L115.767851,56.4339729 Z M103.863527,67.4645874 L106.717986,70.3578037 L105.207446,71.8571812 L102.35177,68.9627518 L103.863527,67.4645874 Z M101.9565,59.6438053 L107.170419,59.6571492 L107.18623,53.6754094 L101.972311,53.6608524 L101.9565,59.6438053 Z M112.648257,73.2595116 L112.667716,66.1653695 L96.4227162,66.1216983 L96.4032568,73.2158404 L112.648257,73.2595116 Z M94.2274459,75.373925 L94.2578514,63.9514828 L114.843527,64.0072849 L114.811905,75.4297271 L94.2274459,75.373925 Z M94.9158243,54.8436137 L97.3506892,57.3462155 L95.8097432,58.8443799 L93.3748784,56.3733184 L94.9158243,54.8436137 Z M116.649608,53.7008843 L109.355959,53.6802618 L109.340149,59.6632147 L118.049473,59.6874765 L118.043392,61.8516265 L91.0701486,61.7776281 L91.0762297,59.6134781 L99.7855541,59.6377398 L99.8025811,53.6547869 L92.5077162,53.6353775 L92.5137973,51.4712275 L97.3360946,51.4845714 L97.3433919,49.0195754 L99.5131216,49.0256409 L99.5058243,51.4906369 L109.662446,51.5173248 L109.669743,49.0523288 L111.840689,49.0583943 L111.833392,51.5233903 L116.654473,51.5367342 L116.649608,53.7008843 Z" id="Fill-13" fill="#373737"></path>
                <path d="M142.054297,64.8331556 L147.57227,74.8884469 L145.671324,75.9050152 L140.153351,65.878838 L142.054297,64.8331556 Z M147.99673,63.2864677 L135.941595,63.2537143 L135.907541,75.6090215 L129.307135,75.5896121 L129.313216,73.4254621 L133.743892,73.4388061 L133.770649,63.2476488 L123.102,63.2185347 L123.136054,50.5320543 L143.057676,50.5866433 C143.902946,50.2578962 144.626595,49.9291492 145.471865,49.6610567 L146.250243,51.6480958 L143.383622,52.7532195 L125.300919,52.7034828 L125.277811,61.0604501 L133.77673,61.0834988 L133.794973,54.3799713 L135.964703,54.3860367 L135.947676,61.0895642 L148.002811,61.1211045 L147.99673,63.2864677 Z M128.851054,65.8485108 L123.247946,75.8431476 L121.353081,74.8168747 L126.954973,64.7919106 L128.851054,65.8485108 Z" id="Fill-14" fill="#373737"></path>
                <path d="M173.395095,54.6083958 L170.900635,52.1057941 L172.411176,50.5760894 L174.906851,53.0774781 L173.395095,54.6083958 Z M161.044419,74.3235116 L164.279554,70.906241 L164.312392,58.6407023 L159.640905,58.6273583 L159.646986,56.4632083 L164.318473,56.4765523 L164.337932,49.4430646 L166.507662,49.4491301 L166.488203,56.4826177 L178.090905,56.514158 L178.084824,58.6783081 L172.028068,58.6625379 L171.987932,73.5422825 L174.790095,73.5495611 L176.241041,71.8694334 L177.864689,73.2863208 L175.748473,75.7161373 L169.812122,75.7015802 L169.858338,58.6564725 L166.482122,58.6467678 L166.446851,71.8136313 L162.607257,75.8313807 L161.044419,74.3235116 Z M159.722392,50.9630646 L157.574554,54.0236872 L157.513743,76.1771109 L155.344014,76.1710455 L155.396311,57.1134238 L153.368878,59.964182 L151.594419,58.6965044 L157.946716,49.6953871 L159.722392,50.9630646 Z" id="Fill-15" fill="#373737"></path>
            </g>
        </g>
    </g>
</svg>